<svg width="22" height="20" viewBox="0 0 22 20" fill="none" xmlns="http://www.w3.org/2000/svg">
<path d="M1.6666 11.3334H17.4799L12.6399 17.1467C12.4136 17.419 12.3047 17.77 12.3372 18.1226C12.3697 18.4752 12.541 18.8004 12.8133 19.0267C13.0856 19.253 13.4366 19.3619 13.7892 19.3294C14.1417 19.2969 14.4669 19.1256 14.6933 18.8534L21.3599 10.8534C21.4048 10.7897 21.4449 10.7229 21.4799 10.6534C21.4799 10.5867 21.4799 10.5467 21.5733 10.48C21.6337 10.3271 21.6653 10.1644 21.6666 10C21.6653 9.83563 21.6337 9.6729 21.5733 9.52002C21.5733 9.45335 21.5733 9.41335 21.4799 9.34669C21.4449 9.27717 21.4048 9.21032 21.3599 9.14669L14.6933 1.14669C14.5679 0.996178 14.4109 0.875137 14.2335 0.792175C14.056 0.709213 13.8625 0.666368 13.6666 0.666687C13.3551 0.666079 13.0531 0.774578 12.8133 0.973352C12.6783 1.08529 12.5666 1.22275 12.4848 1.37788C12.403 1.53301 12.3526 1.70275 12.3365 1.87739C12.3204 2.05203 12.339 2.22812 12.391 2.39559C12.4431 2.56306 12.5277 2.71862 12.6399 2.85335L17.4799 8.66669H1.6666C1.31298 8.66669 0.973837 8.80716 0.723789 9.05721C0.47374 9.30726 0.333265 9.6464 0.333265 10C0.333265 10.3536 0.47374 10.6928 0.723789 10.9428C0.973837 11.1929 1.31298 11.3334 1.6666 11.3334Z" fill="#F2F2F2"/>
</svg>
