<svg width="44" height="48" viewBox="0 0 44 48" fill="none" xmlns="http://www.w3.org/2000/svg">
<path d="M22 0C10.3689 0 0.90625 9.46266 0.90625 21.0938C0.90625 22.3827 0.90625 32.3539 0.90625 32.5312C0.90625 34.8575 2.79878 36.75 5.125 36.75H6.77313C7.35363 38.3867 8.91672 39.5625 10.75 39.5625C13.0762 39.5625 14.9688 37.67 14.9688 35.3438V23.9062C14.9688 21.58 13.0762 19.6875 10.75 19.6875C8.91672 19.6875 7.35363 20.8633 6.77313 22.5H5.125C4.63197 22.5 4.15891 22.5858 3.71875 22.7419V21.0938C3.71875 11.0135 11.9197 2.8125 22 2.8125C32.0803 2.8125 40.2812 11.0135 40.2812 21.0938V22.7419C39.8411 22.5858 39.368 22.5 38.875 22.5H37.2269C36.6464 20.8633 35.0833 19.6875 33.25 19.6875C30.9238 19.6875 29.0312 21.58 29.0312 23.9062V35.3438C29.0312 37.67 30.9238 39.5625 33.25 39.5625C33.6757 39.5625 34.0867 39.4986 34.4745 39.3807C33.9484 41.1115 32.338 42.375 30.4375 42.375H25.9769C25.3964 40.7383 23.8333 39.5625 22 39.5625C19.6738 39.5625 17.7812 41.455 17.7812 43.7812C17.7812 46.1075 19.6738 48 22 48C23.8333 48 25.3964 46.8242 25.9769 45.1875H30.4375C34.3145 45.1875 37.4688 42.0333 37.4688 38.1562V36.75H38.875C41.2012 36.75 43.0938 34.8575 43.0938 32.5312C43.0938 32.3565 43.0938 22.3817 43.0938 21.0938C43.0938 9.46266 33.6311 0 22 0ZM9.34375 23.9062C9.34375 23.1308 9.97459 22.5 10.75 22.5C11.5254 22.5 12.1562 23.1308 12.1562 23.9062V35.3438C12.1562 36.1192 11.5254 36.75 10.75 36.75C9.97459 36.75 9.34375 36.1192 9.34375 35.3438V23.9062ZM5.125 25.3125H6.53125V33.9375H5.125C4.34959 33.9375 3.71875 33.3067 3.71875 32.5312V26.7188C3.71875 25.9433 4.34959 25.3125 5.125 25.3125ZM22 45.1875C21.2246 45.1875 20.5938 44.5567 20.5938 43.7812C20.5938 43.0058 21.2246 42.375 22 42.375C22.7754 42.375 23.4062 43.0058 23.4062 43.7812C23.4062 44.5567 22.7754 45.1875 22 45.1875ZM34.6562 35.3438C34.6562 36.1192 34.0254 36.75 33.25 36.75C32.4746 36.75 31.8438 36.1192 31.8438 35.3438V23.9062C31.8438 23.1308 32.4746 22.5 33.25 22.5C34.0254 22.5 34.6562 23.1308 34.6562 23.9062V35.3438ZM40.2812 32.5312C40.2812 33.3067 39.6504 33.9375 38.875 33.9375H37.4688V25.3125H38.875C39.6504 25.3125 40.2812 25.9433 40.2812 26.7188V32.5312Z" fill="#156963"/>
</svg>
